<?xml version="1.0" encoding="UTF-8" standalone="no"?>
<svg width="59px" height="59px" viewBox="0 0 59 59" version="1.1" xmlns="http://www.w3.org/2000/svg" xmlns:xlink="http://www.w3.org/1999/xlink">
    <!-- Generator: Sketch 41.2 (35397) - http://www.bohemiancoding.com/sketch -->
    <title>Next</title>
    <desc>Created with Sketch.</desc>
    <defs></defs>
    <g id="Page-1" stroke="none" stroke-width="" fill="none" fill-rule="evenodd">
        <g id="Next" fill="#ffffff">
            <path d="M21.5,43.6 L18,42.1 L18,17.4 L21.5,15.9 L39.6,28.2 L39.6,31.4 L21.5,43.6 Z M20.9,40.1 L21.1,40.2 L36.5,29.7 L21.1,19.2 L20.9,19.3 L20.9,40.1 Z" id="Shape"></path>
            <path d="M29.1,3.7 C43.4,3.7 55.1,15.4 55.1,29.7 C55.1,44 43.4,55.7 29.1,55.7 C14.8,55.7 3.1,44 3.1,29.7 C3.1,15.4 14.8,3.7 29.1,3.7 L29.1,3.7 Z M29.1,0.7 C13.1,0.7 0.1,13.7 0.1,29.7 C0.1,45.7 13.1,58.7 29.1,58.7 C45.1,58.7 58.1,45.7 58.1,29.7 C58.1,13.7 45.1,0.7 29.1,0.7 L29.1,0.7 Z" id="Shape"></path>
            <rect id="Rectangle-path" x="40.3" y="16.5" width="3" height="26.4"></rect>
        </g>
    </g>
</svg>