<?xml version="1.0" encoding="UTF-8" standalone="no"?>
<svg width="59px" height="59px" viewBox="0 0 59 59" version="1.1" xmlns="http://www.w3.org/2000/svg" xmlns:xlink="http://www.w3.org/1999/xlink">
    <!-- Generator: Sketch 41.2 (35397) - http://www.bohemiancoding.com/sketch -->
    <title>Prev</title>
    <desc>Created with Sketch.</desc>
    <defs></defs>
    <g id="Page-1" stroke="none" stroke-width="1" fill="none" fill-rule="evenodd">
        <g id="Prev" fill="#ffffff">
            <path d="M37.1,43.6 L19,31.3 L19,28.1 L37.1,15.8 L40.6,17.3 L40.6,42 L37.1,43.6 Z M22,29.7 L37.4,40.2 L37.6,40.1 L37.6,19.3 L37.4,19.2 L22,29.7 Z" id="Shape"></path>
            <path d="M29.5,3.7 C43.8,3.7 55.5,15.4 55.5,29.7 C55.5,44 43.8,55.7 29.5,55.7 C15.2,55.7 3.5,44 3.5,29.7 C3.5,15.4 15.2,3.7 29.5,3.7 L29.5,3.7 Z M29.5,0.7 C13.5,0.7 0.5,13.7 0.5,29.7 C0.5,45.7 13.5,58.7 29.5,58.7 C45.5,58.7 58.5,45.7 58.5,29.7 C58.5,13.7 45.5,0.7 29.5,0.7 L29.5,0.7 Z" id="Shape"></path>
            <rect id="Rectangle-path" x="15.3" y="16.5" width="3" height="26.4"></rect>
        </g>
    </g>
</svg>